# xmcd
#
# Track frame offsets: 
#        150
#        22031
#        43370
#        61486
#        77119
#        99388
#        114748
#        130654
#        144018
#        160345
#        181301
#        199643
#
# Disc length: 2977 seconds
#
# Revision: 3
# Processed by: cddbd v1.5.2PL0 Copyright (c) Steve Scherf et al.
# Submitted via: ExactAudioCopy v1.3
#
DISCID=a10b9f0c
DTITLE=徐雯 - 十億掌聲 [MFCD-014]
DYEAR=2009
DGENRE=Pop
TTITLE0=獨上西樓
TTITLE1=但願人長久
TTITLE2=思君
TTITLE3=人約黃昏後
TTITLE4=幾多愁
TTITLE5=芳草無情
TTITLE6=胭脂淚
TTITLE7=清夜悠悠
TTITLE8=萬葉千聲
TTITLE9=月滿西樓
TTITLE10=別亦難
TTITLE11=人面桃花
EXTD=
EXTT0=
EXTT1=
EXTT2=
EXTT3=
EXTT4=
EXTT5=
EXTT6=
EXTT7=
EXTT8=
EXTT9=
EXTT10=
EXTT11=
PLAYORDER=
